<svg id="Layer_1" data-name="Layer 1" xmlns="http://www.w3.org/2000/svg" viewBox="0 0 270.63 88"><defs><style>.cls-1{fill:#181818;}.cls-2{fill:#565656;}</style></defs><title>Lmod-black</title><path class="cls-1" d="M5.44,5.33h19V63.09h22V79.8H5.44Z"/><path class="cls-1" d="M53.24,24h15.6v5.93A13.15,13.15,0,0,1,72.27,26C74.68,24,78.61,22,84.44,22a17,17,0,0,1,12.78,5.34A18.75,18.75,0,0,1,100.54,32a23,23,0,0,1,4-4.83A19.81,19.81,0,0,1,118.26,22c3.92,0,10.16.91,14.69,5.64,5.23,5.53,6,9.26,6,21.64V79.8H122.28V50.11c0-2.31,0-5.33-1.1-7.85s-3.12-4.53-7.45-4.53c-4.63,0-7,2.12-8,4.63a16,16,0,0,0-1.21,7V79.8H87.76V49.41a19.3,19.3,0,0,0-1-6.95c-1.11-2.61-3.12-4.73-7.35-4.73-4.73,0-7,2.22-8.25,4.93A18.33,18.33,0,0,0,70,50.11V79.8H53.24Z"/><path class="cls-1" d="M265.19,79.8h-15.9v-6c-1.61,2.32-5.64,7.85-16.91,7.85-16.91,0-28-13.08-28-29.89C204.4,32.8,217.89,22,232.08,22c9.86,0,14.59,4.83,16.4,6.65V5.33h16.71ZM221.11,51.72c0,8.56,6.14,14.29,14,14.29a14.69,14.69,0,0,0,10.36-4.22,13.51,13.51,0,0,0,3.93-10.37,13.47,13.47,0,0,0-4.13-9.86,13.87,13.87,0,0,0-10-3.93c-9.66,0-14.19,7.55-14.19,14Z"/><path class="cls-1" d="M172,40.22l11.78,7.26V61.85l-11.78,7-11.82-7V47.48L172,40.22m0-.91L159.45,47V62.3L172,69.75,184.6,62.3V47L172,39.31Z"/><rect class="cls-2" x="159.8" y="61.67" width="0.78" height="0.39" transform="translate(-9.34 89.19) rotate(-30.27)"/><path class="cls-2" d="M161.85,61.12l-.2-.34,1.23-.71.19.33Zm2.45-1.43-.2-.34,1.23-.71.19.33Zm2.45-1.43-.2-.34,1.23-.72.2.34Zm2.45-1.44-.19-.33,1.22-.72.2.34Z"/><polygon class="cls-2" points="171.65 55.39 171.46 55.06 172.03 54.72 172.02 54.06 172.41 54.05 172.42 54.94 171.65 55.39"/><path class="cls-2" d="M172,52.55V51h.38l0,1.51Zm0-3L172,48h.39l0,1.51Zm0-3,0-1.51h.39l0,1.51Zm0-3,0-1.51h.39l0,1.51Z"/><rect class="cls-2" x="171.85" y="39.68" width="0.39" height="0.78" transform="translate(-0.49 2.19) rotate(-0.73)"/><rect class="cls-2" x="183.68" y="61.47" width="0.39" height="0.78" transform="translate(35.93 187.36) rotate(-58.9)"/><path class="cls-2" d="M182.26,61.11l-1.18-.71.2-.33,1.18.71Zm-2.37-1.43L178.71,59l.2-.33,1.18.71Zm-2.36-1.42-1.19-.72.2-.33,1.19.71Zm-2.37-1.43L174,56.11l.2-.33,1.18.72Z"/><polygon class="cls-2" points="172.79 55.4 172.13 55 172.33 54.67 172.99 55.07 172.79 55.4"/><path class="cls-2" d="M172,40.22l11.78,7.26V61.85l-11.78,7-11.82-7V47.48L172,40.22m0-.91L159.45,47V62.3L172,69.75,184.6,62.3V47L172,39.31Z"/><polygon class="cls-1" points="184.6 47.55 184.6 62.3 172.42 69.52 172.42 84.43 197.81 69.75 197.81 39.8 184.6 47.55"/><polygon class="cls-1" points="172.01 24.17 146.63 39.07 159.81 46.82 172.04 39.31 184.21 46.8 197.41 39.06 172.01 24.17"/><polygon class="cls-1" points="171.65 69.53 159.45 62.3 159.45 47.51 146.24 39.75 146.24 69.75 171.65 84.45 171.65 69.53"/></svg>