<svg id="Layer_1" data-name="Layer 1" xmlns="http://www.w3.org/2000/svg" xmlns:xlink="http://www.w3.org/1999/xlink" viewBox="0 0 273.34 93"><defs><style>.cls-1{fill:url(#linear-gradient);}.cls-2{fill:url(#linear-gradient-2);}.cls-3{fill:url(#linear-gradient-3);}.cls-4{fill:#231f20;}.cls-5{fill:#565656;}.cls-6{fill:url(#linear-gradient-4);}.cls-7{fill:url(#linear-gradient-5);}.cls-8{fill:url(#linear-gradient-6);}</style><linearGradient id="linear-gradient" x1="-127.41" y1="62.05" x2="295.26" y2="18.77" gradientUnits="userSpaceOnUse"><stop offset="0" stop-color="#27aae1"/><stop offset="1" stop-color="#243e90"/></linearGradient><linearGradient id="linear-gradient-2" x1="-125.74" y1="78.37" x2="296.93" y2="35.09" xlink:href="#linear-gradient"/><linearGradient id="linear-gradient-3" x1="-135.68" y1="86.53" x2="287" y2="43.25" xlink:href="#linear-gradient"/><linearGradient id="linear-gradient-4" x1="175.14" y1="65.62" x2="200.52" y2="65.62" xlink:href="#linear-gradient"/><linearGradient id="linear-gradient-5" x1="149.34" y1="39" x2="200.12" y2="39" xlink:href="#linear-gradient"/><linearGradient id="linear-gradient-6" x1="148.96" y1="65.6" x2="174.36" y2="65.6" xlink:href="#linear-gradient"/></defs><title>Lmod-4color</title><path class="cls-1" d="M8.15,8.83h19V66.59h22V83.3H8.15Z"/><path class="cls-2" d="M56,27.45h15.6v5.93A13,13,0,0,1,75,29.46c2.42-2,6.34-3.93,12.18-3.93a17.06,17.06,0,0,1,12.78,5.34,19,19,0,0,1,3.32,4.63,23,23,0,0,1,4-4.83A19.83,19.83,0,0,1,121,25.53c3.93,0,10.17.91,14.69,5.64,5.24,5.53,6,9.26,6,21.64V83.3H125V53.61c0-2.31,0-5.33-1.11-7.85s-3.12-4.53-7.45-4.53c-4.63,0-6.94,2.12-8,4.63a16,16,0,0,0-1.21,7V83.3H90.48V52.91a19.12,19.12,0,0,0-1-6.95c-1.1-2.61-3.12-4.73-7.34-4.73-4.73,0-7,2.22-8.26,4.93a18.47,18.47,0,0,0-1.2,7.45V83.3H56Z"/><path class="cls-3" d="M267.9,83.3H252v-6c-1.61,2.32-5.63,7.85-16.9,7.85-16.91,0-28-13.08-28-29.89,0-18.92,13.48-29.69,27.67-29.69,9.87,0,14.6,4.83,16.41,6.65V8.83h16.7ZM223.82,55.22c0,8.56,6.14,14.29,14,14.29a14.72,14.72,0,0,0,10.37-4.22,13.5,13.5,0,0,0,3.92-10.37A13.5,13.5,0,0,0,248,45.06a13.91,13.91,0,0,0-10-3.93c-9.66,0-14.19,7.55-14.19,14Z"/><path class="cls-4" d="M174.75,43.72,186.54,51V65.35l-11.79,7-11.81-7V51l11.81-7.26m0-.91-12.59,7.73V65.8l12.59,7.45,12.56-7.45V50.54l-12.56-7.73Z"/><rect class="cls-5" x="162.51" y="65.17" width="0.78" height="0.39" transform="translate(-10.74 91.03) rotate(-30.27)"/><path class="cls-5" d="M164.56,64.62l-.2-.34,1.23-.71.2.33ZM167,63.19l-.19-.34,1.22-.71.2.33Zm2.45-1.43-.19-.34,1.22-.72.2.34Zm2.46-1.44-.2-.33,1.23-.72.19.34Z"/><polygon class="cls-5" points="174.37 58.89 174.17 58.56 174.74 58.22 174.74 57.56 175.13 57.55 175.14 58.44 174.37 58.89"/><path class="cls-5" d="M174.72,56.05l0-1.51h.39l0,1.51Zm0-3,0-1.52h.39l0,1.51Zm0-3,0-1.51H175L175,50Zm0-3,0-1.51H175V47Z"/><rect class="cls-5" x="174.56" y="43.18" width="0.39" height="0.78" transform="translate(-0.54 2.22) rotate(-0.73)"/><rect class="cls-5" x="186.4" y="64.97" width="0.39" height="0.78" transform="translate(34.25 191.38) rotate(-58.9)"/><path class="cls-5" d="M185,64.61l-1.18-.71.2-.33,1.18.71Zm-2.36-1.43-1.19-.71.2-.33,1.19.71Zm-2.37-1.42L179.06,61l.2-.33,1.18.71Zm-2.37-1.43-1.18-.72.2-.33,1.18.72Z"/><polygon class="cls-5" points="175.5 58.9 174.84 58.5 175.04 58.17 175.71 58.57 175.5 58.9"/><path class="cls-4" d="M174.75,43.72,186.54,51V65.35l-11.79,7-11.81-7V51l11.81-7.26m0-.91-12.59,7.73V65.8l12.59,7.45,12.56-7.45V50.54l-12.56-7.73Z"/><polygon class="cls-6" points="187.31 51.05 187.31 65.8 175.14 73.02 175.14 87.93 200.52 73.25 200.52 43.3 187.31 51.05"/><polygon class="cls-7" points="174.73 27.67 149.34 42.57 162.52 50.32 174.75 42.81 186.93 50.3 200.12 42.56 174.73 27.67"/><polygon class="cls-8" points="174.36 73.03 162.16 65.8 162.16 51.01 148.96 43.25 148.96 73.25 174.36 87.95 174.36 73.03"/></svg>