<svg id="Layer_1" data-name="Layer 1" xmlns="http://www.w3.org/2000/svg" viewBox="0 0 270.63 90"><defs><style>.cls-1{fill:#fff;}.cls-2{fill:#d8d6d7;}</style></defs><title>Lmod-White</title><path class="cls-1" d="M5.44,5.44h19V63.21h22v16.7H5.44Z"/><path class="cls-1" d="M53.24,24.06h15.6V30a13.11,13.11,0,0,1,3.43-3.93c2.41-2,6.34-3.92,12.17-3.92a17,17,0,0,1,12.78,5.33,18.75,18.75,0,0,1,3.32,4.63,23,23,0,0,1,4-4.83,19.81,19.81,0,0,1,13.69-5.13c3.92,0,10.16.9,14.69,5.63,5.23,5.54,6,9.26,6,21.64V79.91H122.28V50.22c0-2.31,0-5.33-1.1-7.85s-3.12-4.52-7.45-4.52c-4.63,0-7,2.11-8,4.63a15.93,15.93,0,0,0-1.21,6.94V79.91H87.76V49.52a19.22,19.22,0,0,0-1-6.94c-1.11-2.62-3.12-4.73-7.35-4.73-4.73,0-7,2.21-8.25,4.93A18.27,18.27,0,0,0,70,50.22V79.91H53.24Z"/><path class="cls-1" d="M265.19,79.91h-15.9v-6c-1.61,2.32-5.64,7.85-16.91,7.85-16.91,0-28-13.08-28-29.88,0-18.93,13.49-29.69,27.68-29.69,9.86,0,14.59,4.83,16.4,6.64V5.44h16.71ZM221.11,51.84c0,8.55,6.14,14.29,14,14.29a14.66,14.66,0,0,0,10.36-4.23,13.51,13.51,0,0,0,3.93-10.37,13.48,13.48,0,0,0-4.13-9.86,13.86,13.86,0,0,0-10-3.92c-9.66,0-14.19,7.54-14.19,14Z"/><path class="cls-1" d="M172,40.33l11.78,7.26V62L172,69l-11.82-7V47.59L172,40.33m0-.91-12.59,7.74V62.41L172,69.86l12.56-7.45V47.16L172,39.42Z"/><rect class="cls-2" x="159.8" y="61.78" width="0.78" height="0.39" transform="translate(-9.4 89.2) rotate(-30.27)"/><path class="cls-2" d="M161.85,61.23l-.2-.33,1.23-.72.19.34Zm2.45-1.43-.2-.33,1.23-.72.19.34Zm2.45-1.43-.2-.34,1.23-.71.2.33Zm2.45-1.43L169,56.6l1.22-.71.2.33Z"/><polygon class="cls-2" points="171.65 55.51 171.46 55.17 172.03 54.83 172.02 54.17 172.41 54.16 172.42 55.06 171.65 55.51"/><path class="cls-2" d="M172,52.66V51.15h.38l0,1.51Zm0-3,0-1.51h.39l0,1.51Zm0-3,0-1.51h.39l0,1.51Zm0-3,0-1.51h.39l0,1.51Z"/><rect class="cls-2" x="171.85" y="39.79" width="0.39" height="0.78" transform="translate(-0.5 2.19) rotate(-0.73)"/><rect class="cls-2" x="183.68" y="61.58" width="0.39" height="0.78" transform="translate(35.84 187.41) rotate(-58.9)"/><path class="cls-2" d="M182.26,61.22l-1.18-.71.2-.33,1.18.71Zm-2.37-1.42-1.18-.72.2-.33,1.18.71Zm-2.36-1.43-1.19-.72.2-.33,1.19.72Zm-2.37-1.43L174,56.23l.2-.34,1.18.72Z"/><polygon class="cls-2" points="172.79 55.51 172.13 55.11 172.33 54.78 172.99 55.18 172.79 55.51"/><path class="cls-2" d="M172,40.33l11.78,7.26V62L172,69l-11.82-7V47.59L172,40.33m0-.91-12.59,7.74V62.41L172,69.86l12.56-7.45V47.16L172,39.42Z"/><polygon class="cls-1" points="184.6 47.66 184.6 62.41 172.42 69.63 172.42 84.55 197.81 69.86 197.81 39.91 184.6 47.66"/><polygon class="cls-1" points="172.01 24.29 146.63 39.18 159.81 46.94 172.04 39.42 184.21 46.92 197.41 39.17 172.01 24.29"/><polygon class="cls-1" points="171.65 69.65 159.45 62.41 159.45 47.63 146.24 39.86 146.24 69.86 171.65 84.56 171.65 69.65"/></svg>